<svg xmlns="http://www.w3.org/2000/svg" width="254.987" height="253.487" viewBox="0 0 254.987 253.487"><g><circle fill="#65B9E0" cx="127.493" cy="125.283" r="125.284"/><path fill="#F4E2CF" d="M121.207 214.008c-17.893-2.375-25.975-5.3-27.232-7.176l-1 13.123-1.752 26.252c10.283 3.385 28.627 5.213 39.945 5.213 10.922 0 21.46-1.72 31.428-4.883l-1.41-21.092c-.926.178-.934-26.686-3.836-23.58-.477.512-26.186 13.463-36.143 12.143z"/><path opacity=".8" fill="#D8C1AD" d="M159.652 207.473c-8.096 5.945-25.432 8.44-35.967 8.44-10.297 0-19.73-2.73-28.73-7.054-.185-.09-.964-.843-1.124-.974l-.095.668-.254 3.787c1.26 1.878 8.253 11.046 26.146 13.423 18.406 2.443 39.54.064 41.56-.318l-1.534-17.972z"/><path fill="#F4E2CF" d="M63.535 117.672c0-27.148 21.188-31.783 28.14-31.783H162.525c6.955 0 28.143 4.634 28.143 31.782l-.04 5.375c-.528 5.48-1.327 20.982-1.763 24.916-1.842 16.553-16.256 49.824-26.8 58.164-.563.447-1.155.87-1.763 1.287-8.388 5.713-22.304 11.584-32.868 11.584-10.48 0-26.043-5.408-33.945-11.49-.408-.314-.814-.633-1.195-.965-10.535-9.252-25.447-42.027-27.582-58.58-.137-1.068-1.072-24.723-1.217-25.908l.042-4.383z"/><path fill="#3F3F41" d="M190.078 72.096c-12.51-23.545-33.727-32.89-62.975-32.89S87.348 52.69 86.243 53.24c-1.58.79-12.5.7-21.052 9.805-22.575 24.03-5.6 77.553-5.6 77.553l.302.576c29.797-25.66 32.973-51.512 32.973-51.512s.15-.225.424-.586c7.183 6.537 16.573 14.43 25.796 20.234 16.488 10.377 46.463 11.93 46.463 11.93s-14.43-5.174-28.724-19.213c-.2-.195-.383-.387-.578-.58l.21.078c8.405 3.023 20.474 9.27 33.937 16.002 8.83 4.418 15.455 9.934 23.455 20.143 0 0 14.425-31.32-3.772-65.574z"/><g fill="#FF38FF"><path d="M56.795 115.358l-8.424 28.38-15.337-4.554 8.422-28.38L30.027 62.14l17.45 5.178 5.645 28.07c.312 1.76.232 4.137.232 4.137s1.232-2.034 2.453-3.34l19.95-20.473L93.3 80.92l-36.505 34.438zM106.693 162.298c-21.666-6.43-31.06-27.16-25.14-47.102 5.976-20.134 25.118-31.56 46.784-25.13 21.86 6.487 31.486 25.722 25.312 46.526-6.004 20.23-25.29 32.136-46.957 25.706zm17.662-58.81c-11.982-3.558-23.512 4.705-26.982 16.4-3.814 12.85 2.375 25.742 13.305 28.987 12.654 3.755 23.654-5.187 27.154-16.978 3.64-12.27-1.3-24.795-13.477-28.41zM183.29 185.03c-16.106-4.78-26.84-19.232-21.15-38.407l12.35-41.61 15.437 4.582-12.35 41.61c-2.816 9.49 1.203 18.09 9.64 20.595 8.63 2.56 17.456-2.226 20.272-11.717l12.35-41.61 15.243 4.524-12.35 41.61c-5.692 19.173-23.145 25.26-39.444 20.423z"/></g></g></svg>