<svg xmlns="http://www.w3.org/2000/svg" width="254.987" height="253.487" viewBox="0 0 254.987 253.487"><g><circle fill="#50858A" cx="127.493" cy="125.283" r="125.284"/><path fill="#F4E2CF" d="M121.207 214.008c-17.893-2.375-25.975-5.3-27.232-7.176l-1 13.123-1.752 26.252c10.283 3.385 28.627 5.213 39.945 5.213 10.922 0 21.46-1.72 31.428-4.883l-1.41-21.092c-.926.178-.934-26.686-3.836-23.58-.477.512-26.186 13.463-36.143 12.143z"/><path opacity=".8" fill="#D8C1AD" d="M159.652 207.473c-8.096 5.945-25.432 8.44-35.967 8.44-10.297 0-19.73-2.73-28.73-7.054-.185-.09-.964-.843-1.124-.974l-.095.668-.254 3.787c1.26 1.878 8.253 11.046 26.146 13.423 18.406 2.443 39.54.064 41.56-.318l-1.534-17.972z"/><path fill="#F4E2CF" d="M63.535 117.672c0-27.148 21.188-31.783 28.14-31.783H162.525c6.955 0 28.143 4.634 28.143 31.782l-.04 5.375c-.528 5.48-1.327 20.982-1.763 24.916-1.842 16.553-16.256 49.824-26.8 58.164-.563.447-1.155.87-1.763 1.287-8.388 5.713-22.304 11.584-32.868 11.584-10.48 0-26.043-5.408-33.945-11.49-.408-.314-.814-.633-1.195-.965-10.535-9.252-25.447-42.027-27.582-58.58-.137-1.068-1.072-24.723-1.217-25.908l.042-4.383z"/><path fill="#3F3F41" d="M190.078 72.096c-12.51-23.545-33.727-32.89-62.975-32.89S87.348 52.69 86.243 53.24c-1.58.79-12.5.7-21.052 9.805-22.575 24.03-5.6 77.553-5.6 77.553l.302.576c29.797-25.66 32.973-51.512 32.973-51.512s.15-.225.424-.586c7.183 6.537 16.573 14.43 25.796 20.234 16.488 10.377 46.463 11.93 46.463 11.93s-14.43-5.174-28.724-19.213c-.2-.195-.383-.387-.578-.58l.21.078c8.405 3.023 20.474 9.27 33.937 16.002 8.83 4.418 15.455 9.934 23.455 20.143 0 0 14.425-31.32-3.772-65.574z"/><g fill="#FF38FF"><path d="M125.78 166.068l-13.183-39.985c-.814-2.47-1.312-4.938-1.312-4.938s-.037 1.802-.326 3.16l-6.118 33.504-5.795 1.91-25.13-23.2c-1.04-.922-2.142-2.348-2.142-2.348s1.066 2.28 1.88 4.75l13.185 39.985-15.197 5.01-22.86-69.334 14.913-4.916 29.857 27.643c1.2 1.08 2.365 2.696 2.365 2.696s-.025-1.992.2-3.542l6.52-39.636 15.48-5.104 22.858 69.334-15.197 5.01zM164.715 153.232l-22.86-69.335 40.366-13.308 4.228 12.82-25.168 8.3 5.354 16.24L190 100.248l4.226 12.82-23.365 7.705 4.825 14.625 26.594-8.768 4.226 12.822-41.79 13.78z"/></g></g></svg>