<?xml version="1.0" encoding="utf-8"?>
<!-- Generator: Adobe Illustrator 16.0.0, SVG Export Plug-In . SVG Version: 6.00 Build 0)  -->
<!DOCTYPE svg PUBLIC "-//W3C//DTD SVG 1.1//EN" "http://www.w3.org/Graphics/SVG/1.1/DTD/svg11.dtd">
<svg version="1.1" xmlns="http://www.w3.org/2000/svg" xmlns:xlink="http://www.w3.org/1999/xlink" x="0px" y="0px"
	 width="254.987px" height="253.487px" viewBox="0 0 254.987 253.487" enable-background="new 0 0 254.987 253.487"
	 xml:space="preserve">
<g id="Layer_1" display="none">
</g>
<g id="Layer_2">
	<g>
		<circle fill="#50858A" cx="127.493" cy="125.283" r="125.284"/>
		<g>
			<g>
				<path fill="#F4E2CF" d="M121.207,214.008c-17.893-2.375-25.975-5.301-27.232-7.176l-1,13.123l-1.752,26.252
					c10.283,3.385,28.627,5.213,39.945,5.213c10.922,0,21.461-1.721,31.428-4.883l-1.41-21.092
					c-0.926,0.178-0.934-26.686-3.836-23.58C156.873,202.377,131.164,215.328,121.207,214.008z"/>
				<path opacity="0.8" fill="#D8C1AD" d="M159.652,207.473c-8.096,5.945-25.432,8.441-35.967,8.441
					c-10.297,0-19.729-2.732-28.729-7.055c-0.186-0.088-0.965-0.842-1.125-0.973l-0.096,0.668l-0.254,3.787
					c1.26,1.877,8.252,11.045,26.145,13.422c18.406,2.443,39.539,0.064,41.559-0.318L159.652,207.473z"/>
			</g>
			<path fill="#F4E2CF" d="M63.535,117.672c0-27.148,21.188-31.783,28.141-31.783s14.236,0,35.426,0c21.188,0,28.471,0,35.422,0
				c6.955,0,28.143,4.635,28.143,31.783l-0.041,5.375c-0.527,5.48-1.326,20.982-1.762,24.916
				c-1.842,16.553-16.256,49.824-26.801,58.164c-0.562,0.447-1.154,0.871-1.762,1.287c-8.389,5.713-22.305,11.584-32.869,11.584
				c-10.479,0-26.043-5.408-33.945-11.49c-0.408-0.314-0.814-0.633-1.195-0.965c-10.535-9.252-25.447-42.027-27.582-58.58
				c-0.137-1.068-1.072-24.723-1.217-25.908L63.535,117.672z"/>
			<path fill="#3F3F41" d="M190.078,72.096c-12.51-23.545-33.727-32.889-62.975-32.889S87.348,52.688,86.242,53.24
				c-1.58,0.789-12.498,0.699-21.051,9.805c-22.576,24.031-5.6,77.553-5.6,77.553l0.301,0.576
				c29.797-25.66,32.973-51.512,32.973-51.512s0.15-0.225,0.424-0.586c7.184,6.537,16.574,14.43,25.797,20.234
				c16.488,10.377,46.463,11.93,46.463,11.93s-14.428-5.174-28.723-19.213c-0.201-0.195-0.383-0.387-0.578-0.58
				c0.068,0.025,0.141,0.053,0.209,0.078c8.406,3.023,20.475,9.27,33.938,16.002c8.83,4.418,15.455,9.934,23.455,20.143
				C193.85,137.67,208.275,106.35,190.078,72.096z"/>
		</g>
		<g>
			<path fill="#FF38FF" d="M125.779,166.068l-13.182-39.985c-0.814-2.47-1.312-4.938-1.312-4.938s-0.037,1.802-0.326,3.161
				l-6.117,33.503l-5.795,1.91l-25.129-23.2c-1.041-0.921-2.143-2.347-2.143-2.347s1.066,2.279,1.881,4.749l13.184,39.986
				l-15.197,5.01l-22.859-69.334l14.912-4.916l29.857,27.643c1.201,1.08,2.365,2.696,2.365,2.696s-0.025-1.992,0.201-3.542
				l6.518-39.636l15.48-5.104l22.859,69.334L125.779,166.068z"/>
			<path fill="#FF38FF" d="M164.715,153.232l-22.859-69.335l40.365-13.308l4.227,12.822l-25.168,8.299l5.354,16.24l23.365-7.702
				l4.227,12.821l-23.365,7.704l4.824,14.625l26.594-8.768l4.227,12.822L164.715,153.232z"/>
		</g>
	</g>
</g>
</svg>
